<?xml version="1.0" encoding="UTF-8"?>
<svg width="110px" height="34px" viewBox="0 0 110 34" version="1.1" xmlns="http://www.w3.org/2000/svg" xmlns:xlink="http://www.w3.org/1999/xlink">
    <!-- Generator: Sketch 55.2 (78181) - https://sketchapp.com -->
    <title>Abode logo</title>
    <desc>Created with Sketch.</desc>
    <defs>
        <path d="M33.32,31 L31.66,31 L30.04,27.16 L23.48,27.16 L21.86,31 L20.2,31 L25.82,17.76 L27.7,17.76 L33.32,31 Z M29.46,25.78 L26.76,19.32 L24.06,25.78 L29.46,25.78 Z M45.12,21.26 C45.12,22.7133406 44.5266726,23.706664 43.34,24.24 C44.4333388,24.6000018 45.179998,25.26 45.58,26.22 C45.7266674,26.5933352 45.8,27.0266642 45.8,27.52 C45.8,29.120008 44.9533418,30.186664 43.26,30.72 C42.6999972,30.9066676 42.0400038,31 41.28,31 L35,31 L35,17.76 L40.94,17.76 C42.3666738,17.76 43.4533296,18.1466628 44.2,18.92 C44.8133364,19.5333364 45.12,20.3133286 45.12,21.26 Z M36.5,23.68 L40.94,23.68 C42.1666728,23.68 42.9866646,23.2600042 43.4,22.42 C43.5466674,22.1266652 43.62,21.8100017 43.62,21.47 C43.62,21.1299983 43.5733338,20.8300013 43.48,20.57 C43.3866662,20.3099987 43.240001,20.080001 43.04,19.88 C42.5999978,19.413331 41.9533376,19.18 41.1,19.18 L36.5,19.18 L36.5,23.68 Z M41.44,29.58 C42.3600046,29.58 43.0666642,29.3900019 43.56,29.01 C44.0533358,28.6299981 44.3,28.0933368 44.3,27.4 C44.3,26.73333 44.0600024,26.1866688 43.58,25.76 C43.046664,25.2799976 42.280005,25.04 41.28,25.04 L36.5,25.04 L36.5,29.58 L41.44,29.58 Z M54.12,17.6 C56.0933432,17.6 57.713327,18.2599934 58.98,19.58 C60.2200062,20.8600064 60.84,22.4599904 60.84,24.38 C60.84,26.3000096 60.2200062,27.8999936 58.98,29.18 C57.713327,30.5000066 56.0933432,31.16 54.12,31.16 C52.1466568,31.16 50.526673,30.5000066 49.26,29.18 C48.0199938,27.8999936 47.4,26.3000096 47.4,24.38 C47.4,22.4599904 48.0199938,20.8600064 49.26,19.58 C50.526673,18.2599934 52.1466568,17.6 54.12,17.6 Z M54.12,29.7 C55.6933412,29.7 56.9666618,29.1866718 57.94,28.16 C58.873338,27.1733284 59.34,25.913341 59.34,24.38 C59.34,22.846659 58.873338,21.5866716 57.94,20.6 C56.9666618,19.5733282 55.6933412,19.06 54.12,19.06 C52.5466588,19.06 51.2733382,19.5733282 50.3,20.6 C49.366662,21.5866716 48.9,22.846659 48.9,24.38 C48.9,25.913341 49.366662,27.1733284 50.3,28.16 C51.2733382,29.1866718 52.5466588,29.7 54.12,29.7 Z M68.82,17.76 C69.6066706,17.76 70.366663,17.9099985 71.1,18.21 C71.833337,18.5100015 72.4799972,18.9466638 73.04,19.52 C74.2800062,20.786673 74.9,22.4066568 74.9,24.38 C74.9,26.3533432 74.2800062,27.973327 73.04,29.24 C72.4799972,29.8133362 71.833337,30.2499985 71.1,30.55 C70.366663,30.8500015 69.6066706,31 68.82,31 L63.24,31 L63.24,17.76 L68.82,17.76 Z M68.76,29.58 C70.1466736,29.58 71.273329,29.0666718 72.14,28.04 C72.9800042,27.0533284 73.4,25.8333406 73.4,24.38 C73.4,22.9266594 72.9800042,21.7066716 72.14,20.72 C71.273329,19.6933282 70.1466736,19.18 68.76,19.18 L64.74,19.18 L64.74,29.58 L68.76,29.58 Z M78.82,19.2 L78.82,23.64 L86.18,23.64 L86.18,25.1 L78.82,25.1 L78.82,29.56 L87.06,29.56 L87.06,31 L77.32,31 L77.32,17.76 L87.06,17.76 L87.06,19.2 L78.82,19.2 Z" id="path-1"></path>
    </defs>
    <g id="Abode-logo" stroke="none" stroke-width="1" fill="none" fill-rule="evenodd">
        <g transform="translate(0.000000, -1.000000)" fill-rule="nonzero">
            <g id="ABODE">
                <use fill="#000000" xlink:href="#path-1"></use>
                <use fill="#78A170" xlink:href="#path-1"></use>
            </g>
            <polygon id="Path" fill="#424242" transform="translate(33.345164, 12.714136) rotate(-0.000000) translate(-33.345164, -12.714136) " points="66.3397981 1.02635948 0.0301257826 23.454631 0.350529661 24.401912 66.6602019 1.97364051"></polygon>
            <polygon id="Path" fill="#424242" transform="translate(76.654124, 12.716588) rotate(-1.000000) translate(-76.654124, -12.716588) " points="43.339124 1.96980302 109.647224 24.406588 109.969124 23.463373 43.6610236 1.02658799"></polygon>
        </g>
    </g>
</svg>