<?xml version="1.0" encoding="UTF-8"?>
<svg width="98px" height="114px" viewBox="0 0 98 114" version="1.1" xmlns="http://www.w3.org/2000/svg" xmlns:xlink="http://www.w3.org/1999/xlink">
    <!-- Generator: Sketch 55.2 (78181) - https://sketchapp.com -->
    <title>White boxes logo</title>
    <desc>Created with Sketch.</desc>
    <g id="Page-1" stroke="none" stroke-width="1" fill="none" fill-rule="evenodd">
        <g id="White-boxes-logo" transform="translate(0.000000, -6.000000)">
            <rect id="Rectangle-bottom-left-Copy" fill="#FFFFFF" x="0" y="88" width="32" height="32"></rect>
            <rect id="Rectangle-middle-center-Copy" fill="#FFFFFF" x="32" y="47" width="32" height="32"></rect>
            <rect id="Rectangle-top-right-Copy" fill="#FFFFFF" x="66" y="6" width="32" height="32"></rect>
            <path d="M10.438,26.621 C11.2520041,27.3470036 12.1704949,27.9354977 13.1935,28.3865 C14.2165051,28.8375023 15.2559947,29.063 16.312,29.063 C17.6320066,29.063 18.6329966,28.8100025 19.315,28.304 C19.9970034,27.7979975 20.338,27.1270042 20.338,26.291 C20.338,25.8509978 20.2500009,25.4770015 20.074,25.169 C19.8979991,24.8609985 19.6505016,24.5915012 19.3315,24.3605 C19.0124984,24.1294988 18.6275023,23.915001 18.1765,23.717 C17.7254977,23.518999 17.2360026,23.321001 16.708,23.123 L13.771,21.836 C13.1989971,21.6159989 12.6380027,21.3410017 12.088,21.011 C11.5379972,20.6809984 11.0430022,20.2850023 10.603,19.823 C10.1629978,19.3609977 9.81100132,18.8220031 9.547,18.206 C9.28299868,17.5899969 9.151,16.886004 9.151,16.094 C9.151,15.2359957 9.33799813,14.4385037 9.712,13.7015 C10.0860019,12.9644963 10.6029967,12.3210028 11.263,11.771 C11.9230033,11.2209972 12.7094954,10.7920015 13.6225,10.484 C14.5355046,10.1759985 15.5419945,10.022 16.642,10.022 C17.9620066,10.022 19.221494,10.2694975 20.4205,10.7645 C21.619506,11.2595025 22.6699955,11.9249958 23.572,12.761 L21.592,15.203 C20.8659964,14.6309971 20.107004,14.1800016 19.315,13.85 C18.522996,13.5199984 17.6320049,13.355 16.642,13.355 C15.5199944,13.355 14.6345032,13.5804977 13.9855,14.0315 C13.3364968,14.4825023 13.012,15.103996 13.012,15.896 C13.012,16.3140021 13.110999,16.6714985 13.309,16.9685 C13.507001,17.2655015 13.7764983,17.5294988 14.1175,17.7605 C14.4585017,17.9915012 14.8544977,18.1949991 15.3055,18.371 C15.7565023,18.5470009 16.2239976,18.733999 16.708,18.932 L19.546,20.153 C20.2280034,20.4170013 20.8549971,20.7249982 21.427,21.077 C21.9990029,21.4290018 22.4939979,21.8359977 22.912,22.298 C23.3300021,22.7600023 23.6544988,23.293497 23.8855,23.8985 C24.1165012,24.503503 24.232,25.201996 24.232,25.994 C24.232,26.8740044 24.0505018,27.6989961 23.6875,28.469 C23.3244982,29.2390038 22.8020034,29.9154971 22.12,30.4985 C21.4379966,31.0815029 20.6020049,31.5434983 19.612,31.8845 C18.621995,32.2255017 17.5000063,32.396 16.246,32.396 C14.7279924,32.396 13.2760069,32.1210028 11.89,31.571 C10.5039931,31.0209972 9.27200539,30.2400051 8.194,29.228 L10.438,26.621 Z M45.36,20.516 L48.33,20.516 C49.8260075,20.516 50.9644961,20.2080031 51.7455,19.592 C52.5265039,18.9759969 52.917,18.0520062 52.917,16.82 C52.917,15.5659937 52.5265039,14.6970024 51.7455,14.213 C50.9644961,13.7289976 49.8260075,13.487 48.33,13.487 L45.36,13.487 L45.36,20.516 Z M53.214,32 L48.594,23.552 L45.36,23.552 L45.36,32 L41.532,32 L41.532,10.418 L48.726,10.418 C49.8480056,10.418 50.8929952,10.5279989 51.861,10.748 C52.8290048,10.9680011 53.6704964,11.3254975 54.3855,11.8205 C55.1005036,12.3155025 55.661498,12.9699959 56.0685,13.784 C56.475502,14.5980041 56.679,15.609994 56.679,16.82 C56.679,18.4700083 56.2885039,19.8009949 55.5075,20.813 C54.7264961,21.8250051 53.6870065,22.5509978 52.389,22.991 L57.537,32 L53.214,32 Z M73.616,10.418 L77.444,10.418 L77.444,19.097 L84.836,19.097 L84.836,10.418 L88.664,10.418 L88.664,32 L84.836,32 L84.836,22.43 L77.444,22.43 L77.444,32 L73.616,32 L73.616,10.418 Z M10.438,67.621 C11.2520041,68.3470036 12.1704949,68.9354977 13.1935,69.3865 C14.2165051,69.8375023 15.2559947,70.063 16.312,70.063 C17.6320066,70.063 18.6329966,69.8100025 19.315,69.304 C19.9970034,68.7979975 20.338,68.1270042 20.338,67.291 C20.338,66.8509978 20.2500009,66.4770015 20.074,66.169 C19.8979991,65.8609985 19.6505016,65.5915012 19.3315,65.3605 C19.0124984,65.1294988 18.6275023,64.915001 18.1765,64.717 C17.7254977,64.518999 17.2360026,64.321001 16.708,64.123 L13.771,62.836 C13.1989971,62.6159989 12.6380027,62.3410016 12.088,62.011 C11.5379972,61.6809983 11.0430022,61.2850023 10.603,60.823 C10.1629978,60.3609977 9.81100132,59.8220031 9.547,59.206 C9.28299868,58.5899969 9.151,57.886004 9.151,57.094 C9.151,56.2359957 9.33799813,55.4385037 9.712,54.7015 C10.0860019,53.9644963 10.6029967,53.3210028 11.263,52.771 C11.9230033,52.2209972 12.7094954,51.7920015 13.6225,51.484 C14.5355046,51.1759985 15.5419945,51.022 16.642,51.022 C17.9620066,51.022 19.221494,51.2694975 20.4205,51.7645 C21.619506,52.2595025 22.6699955,52.9249958 23.572,53.761 L21.592,56.203 C20.8659964,55.6309971 20.107004,55.1800016 19.315,54.85 C18.522996,54.5199983 17.6320049,54.355 16.642,54.355 C15.5199944,54.355 14.6345032,54.5804977 13.9855,55.0315 C13.3364968,55.4825023 13.012,56.103996 13.012,56.896 C13.012,57.3140021 13.110999,57.6714985 13.309,57.9685 C13.507001,58.2655015 13.7764983,58.5294988 14.1175,58.7605 C14.4585017,58.9915012 14.8544977,59.1949991 15.3055,59.371 C15.7565023,59.5470009 16.2239976,59.733999 16.708,59.932 L19.546,61.153 C20.2280034,61.4170013 20.8549971,61.7249982 21.427,62.077 C21.9990029,62.4290018 22.4939979,62.8359977 22.912,63.298 C23.3300021,63.7600023 23.6544988,64.293497 23.8855,64.8985 C24.1165012,65.503503 24.232,66.201996 24.232,66.994 C24.232,67.8740044 24.0505018,68.6989961 23.6875,69.469 C23.3244982,70.2390039 22.8020034,70.9154971 22.12,71.4985 C21.4379966,72.0815029 20.6020049,72.5434983 19.612,72.8845 C18.621995,73.2255017 17.5000063,73.396 16.246,73.396 C14.7279924,73.396 13.2760069,73.1210028 11.89,72.571 C10.5039931,72.0209972 9.27200539,71.2400051 8.194,70.228 L10.438,67.621 Z M41.136,51.418 L44.964,51.418 L44.964,60.097 L52.356,60.097 L52.356,51.418 L56.184,51.418 L56.184,73 L52.356,73 L52.356,63.43 L44.964,63.43 L44.964,73 L41.136,73 L41.136,51.418 Z M73.682,51.418 L77.576,51.418 L83.351,63.562 L85.364,68.149 L85.463,68.149 C85.3749996,67.0269944 85.2650007,65.8225064 85.133,64.5355 C85.0009993,63.2484936 84.935,62.000006 84.935,60.79 L84.935,51.418 L88.598,51.418 L88.598,73 L84.704,73 L78.929,60.823 L76.916,56.269 L76.817,56.269 C76.9050004,57.4130057 77.0149993,58.6119937 77.147,59.866 C77.2790007,61.1200063 77.345,62.3519939 77.345,63.562 L77.345,73 L73.682,73 L73.682,51.418 Z M8.656,92.418 L12.484,92.418 L12.484,101.097 L19.876,101.097 L19.876,92.418 L23.704,92.418 L23.704,114 L19.876,114 L19.876,104.43 L12.484,104.43 L12.484,114 L8.656,114 L8.656,92.418 Z M41.202,92.418 L45.096,92.418 L50.871,104.562 L52.884,109.149 L52.983,109.149 C52.8949996,108.026994 52.7850007,106.822506 52.653,105.5355 C52.5209993,104.248494 52.455,103.000006 52.455,101.79 L52.455,92.418 L56.118,92.418 L56.118,114 L52.224,114 L46.449,101.823 L44.436,97.269 L44.337,97.269 C44.4250004,98.4130057 44.5349993,99.6119937 44.667,100.866 C44.7990007,102.120006 44.865,103.351994 44.865,104.562 L44.865,114 L41.202,114 L41.202,92.418 Z M77.84,102.516 L80.81,102.516 C82.3060075,102.516 83.4444961,102.208003 84.2255,101.592 C85.0065039,100.975997 85.397,100.052006 85.397,98.82 C85.397,97.5659937 85.0065039,96.6970024 84.2255,96.213 C83.4444961,95.7289976 82.3060075,95.487 80.81,95.487 L77.84,95.487 L77.84,102.516 Z M85.694,114 L81.074,105.552 L77.84,105.552 L77.84,114 L74.012,114 L74.012,92.418 L81.206,92.418 C82.3280056,92.418 83.3729952,92.5279989 84.341,92.748 C85.3090048,92.9680011 86.1504964,93.3254975 86.8655,93.8205 C87.5805036,94.3155025 88.141498,94.9699959 88.5485,95.784 C88.955502,96.5980041 89.159,97.6099939 89.159,98.82 C89.159,100.470008 88.7685039,101.800995 87.9875,102.813 C87.2064961,103.825005 86.1670065,104.550998 84.869,104.991 L90.017,114 L85.694,114 Z" id="SRHSHNHNR" fill="#000000" fill-rule="nonzero"></path>
        </g>
    </g>
</svg>